<svg width="379" height="379" viewBox="0 0 379 379" fill="none" xmlns="http://www.w3.org/2000/svg">
<path d="M212.609 39.5946C221.484 30.2337 237.186 34.2187 240.522 46.6788L252.676 92.0663C257.902 94.6351 262.822 97.6501 267.399 101.051L311.776 99.8689C324.67 99.5252 332.955 113.445 326.504 124.615L304.726 162.321C305.728 168.422 306.142 174.669 305.921 180.986L339.276 212.609C348.637 221.484 344.652 237.186 332.192 240.522L287.511 252.486C284.739 257.881 281.487 262.936 277.825 267.614L279.003 311.776C279.347 324.67 265.426 332.955 254.256 326.504L214.5 303.542C209.566 304.164 204.548 304.402 199.484 304.232L166.262 339.276C157.387 348.637 141.685 344.652 138.349 332.192L125.64 284.732C125.631 284.699 125.62 284.666 125.611 284.632C121.833 282.562 118.229 280.254 114.815 277.73L67.0951 279.003C54.2007 279.346 45.9166 265.426 52.3679 254.256L76.7051 212.115C76.2676 208.424 76.0445 204.687 76.0461 200.921C75.8005 200.623 75.5358 200.336 75.2498 200.065L39.5946 166.261C30.2337 157.387 34.2188 141.685 46.6789 138.349L94.1386 125.64C94.3997 125.57 94.6556 125.489 94.9062 125.399C96.7824 121.825 98.8697 118.403 101.149 115.144L99.869 67.0953C99.5253 54.2008 113.445 45.9166 124.615 52.3678L164.671 75.5008C169.586 74.7292 174.594 74.3395 179.654 74.3546L212.609 39.5946Z" fill="#FEFEFE" stroke="#F7B51D" stroke-width="7"/>
<path d="M214.061 40.9704C221.86 32.7442 235.658 36.2463 238.591 47.1961L250.98 93.4666C256.611 96.1667 261.885 99.3928 266.756 103.068L311.829 101.868C323.161 101.567 330.441 113.799 324.772 123.615L302.633 161.945C303.748 168.427 304.185 175.082 303.885 181.812L337.9 214.061C346.127 221.86 342.625 235.658 331.675 238.591L286.13 250.786C283.222 256.58 279.752 261.984 275.806 266.945L277.003 311.83C277.305 323.161 265.073 330.441 255.257 324.772L214.912 301.47C209.58 302.181 204.145 302.434 198.659 302.198C198.644 302.214 198.628 302.23 198.613 302.245L164.81 337.9C157.011 346.127 143.213 342.625 140.28 331.675L127.572 284.215C127.484 283.888 127.382 283.568 127.268 283.254C123.112 281.023 119.169 278.498 115.457 275.712L67.0423 277.004C55.7109 277.306 48.4307 265.073 54.0997 255.257L78.6719 212.71C78.7063 212.651 78.7379 212.59 78.7711 212.53C78.2628 208.485 78.0171 204.383 78.049 200.246C77.6322 199.667 77.1586 199.119 76.6256 198.613L40.9705 164.81C32.7442 157.011 36.2464 143.212 47.1961 140.28L94.6559 127.572C95.2388 127.416 95.8001 127.214 96.3385 126.976C98.3626 123.047 100.649 119.302 103.166 115.756L101.868 67.0425C101.566 55.711 113.799 48.4306 123.615 54.0999L164.284 77.5879C169.596 76.7127 175.021 76.2944 180.507 76.3614L214.061 40.9704Z" fill="#FEFEFE" stroke="#2C2C2C" stroke-width="3"/>
<path d="M215.15 42.0026C222.142 34.6274 234.513 37.767 237.141 47.5841L249.85 95.0441C251.406 100.853 256.743 104.837 262.754 104.677L311.869 103.367C322.028 103.096 328.556 114.064 323.473 122.865L298.9 165.41C295.892 170.618 296.849 177.209 301.213 181.346L336.868 215.15C344.244 222.142 341.104 234.513 331.287 237.141L283.827 249.85C278.018 251.406 274.034 256.743 274.194 262.754L275.504 311.869C275.775 322.028 264.807 328.556 256.007 323.473L213.461 298.9C208.253 295.892 201.662 296.849 197.525 301.213L163.721 336.868C156.729 344.244 144.359 341.104 141.73 331.287L129.021 283.827C127.465 278.018 122.128 274.034 116.117 274.194L67.0021 275.504C56.8427 275.775 50.3154 264.807 55.3983 256.007L79.9711 213.461C82.9788 208.253 82.0221 201.662 77.6579 197.525L42.0026 163.721C34.6273 156.729 37.767 144.359 47.584 141.73L95.0441 129.021C100.853 127.465 104.837 122.128 104.677 116.117L103.367 67.0021C103.096 56.8428 114.064 50.3155 122.864 55.3983L165.41 79.9711C170.618 82.9788 177.209 82.0221 181.346 77.6579L215.15 42.0026Z" fill="#FEFEFE"/>
<path d="M90.2673 147.244C102.767 97.9949 152.823 68.2035 202.072 80.7028L233.089 88.5747C282.337 101.074 312.129 151.131 299.63 200.38L291.758 231.396C279.258 280.645 229.202 310.436 179.953 297.937L148.936 290.065C99.6874 277.566 69.896 227.509 82.3953 178.26L90.2673 147.244Z" fill="#FEFEFE"/>
<path d="M134.656 120.672C135.136 119.856 135.832 119.112 136.744 118.44C137.672 117.768 138.712 117.232 139.864 116.832C141.032 116.432 142.2 116.232 143.368 116.232C144.12 116.232 144.88 116.304 145.648 116.448C146.416 116.576 147.016 116.76 147.448 117L146.488 121.824C146.104 121.664 145.608 121.496 145 121.32C144.408 121.128 143.672 121.032 142.792 121.032C141.848 121.032 140.904 121.208 139.96 121.56C139.032 121.896 138.176 122.36 137.392 122.952C136.608 123.544 135.952 124.224 135.424 124.992C135.648 126.112 135.864 127.48 136.072 129.096C136.296 130.712 136.496 132.368 136.672 134.064C136.848 135.76 136.992 137.312 137.104 138.72C137.216 140.112 137.272 141.16 137.272 141.864C136.584 141.928 135.744 141.968 134.752 141.984C133.76 142 132.848 142 132.016 141.984C132.016 140.496 131.984 138.928 131.92 137.28C131.856 135.616 131.752 133.92 131.608 132.192C131.48 130.448 131.312 128.712 131.104 126.984C130.896 125.256 130.648 123.584 130.36 121.968C130.088 120.336 129.776 118.792 129.424 117.336C129.856 117.208 130.36 117.08 130.936 116.952C131.528 116.824 132.072 116.712 132.568 116.616C133.064 116.52 133.4 116.464 133.576 116.448C133.784 116.992 134 117.696 134.224 118.56C134.448 119.424 134.592 120.128 134.656 120.672Z" fill="#2C2C2C"/>
<path d="M161.14 142.44C159.14 142.44 157.324 142.176 155.692 141.648C154.076 141.104 152.788 140.24 151.828 139.056C150.868 137.856 150.388 136.264 150.388 134.28C150.388 132.376 150.924 130.8 151.996 129.552C153.068 128.304 154.516 127.384 156.34 126.792C158.18 126.184 160.236 125.88 162.508 125.88C163.564 125.88 164.596 125.96 165.604 126.12C166.612 126.264 167.484 126.44 168.22 126.648C168.956 126.84 169.452 126.992 169.708 127.104C169.66 126.576 169.564 126.04 169.42 125.496C169.292 124.936 169.092 124.448 168.82 124.032C168.212 122.96 167.324 122.08 166.156 121.392C165.004 120.688 163.556 120.336 161.812 120.336C159.972 120.336 158.412 120.736 157.132 121.536C155.852 122.32 154.892 123.256 154.252 124.344L150.364 121.776C151.068 120.736 151.996 119.816 153.148 119.016C154.3 118.216 155.628 117.584 157.132 117.12C158.636 116.656 160.252 116.424 161.98 116.424C164.668 116.424 166.892 116.936 168.652 117.96C170.412 118.984 171.7 120.336 172.516 122.016C172.932 122.864 173.26 123.792 173.5 124.8C173.74 125.808 173.884 127.056 173.932 128.544C173.964 130.112 173.996 131.448 174.028 132.552C174.076 133.656 174.124 134.608 174.172 135.408C174.252 136.448 174.412 137.12 174.652 137.424C174.892 137.728 175.236 137.88 175.684 137.88C176.196 137.88 176.628 137.664 176.98 137.232C177.332 136.784 177.532 136.16 177.58 135.36L179.884 137.904C179.788 139.248 179.316 140.272 178.468 140.976C177.62 141.68 176.628 142.032 175.492 142.032C174.596 142.032 173.804 141.864 173.116 141.528C172.444 141.176 171.908 140.728 171.508 140.184C171.108 139.64 170.876 139.08 170.812 138.504C170.492 139.096 169.868 139.696 168.94 140.304C168.028 140.912 166.9 141.424 165.556 141.84C164.228 142.24 162.756 142.44 161.14 142.44ZM162.004 138.672C163.044 138.672 164.06 138.512 165.052 138.192C166.044 137.872 166.956 137.448 167.788 136.92C168.636 136.392 169.332 135.808 169.876 135.168C169.86 134.176 169.86 133.296 169.876 132.528C169.892 131.744 169.916 131.024 169.948 130.368C169.484 130.208 168.596 130 167.284 129.744C165.972 129.472 164.492 129.336 162.844 129.336C161.42 129.336 160.124 129.528 158.956 129.912C157.804 130.28 156.884 130.816 156.196 131.52C155.524 132.224 155.188 133.072 155.188 134.064C155.188 135.264 155.476 136.2 156.052 136.872C156.644 137.528 157.452 137.992 158.476 138.264C159.5 138.536 160.676 138.672 162.004 138.672Z" fill="#2C2C2C"/>
<path d="M200.018 141.864C200.018 141.592 200.01 141.184 199.994 140.64C199.978 140.08 199.97 139.536 199.97 139.008C199.97 138.464 199.97 138.064 199.97 137.808C199.858 138 199.61 138.312 199.226 138.744C198.842 139.176 198.298 139.632 197.594 140.112C196.906 140.592 196.034 141 194.978 141.336C193.922 141.672 192.666 141.84 191.21 141.84C189.066 141.84 187.234 141.376 185.714 140.448C184.194 139.504 183.034 138.192 182.234 136.512C181.45 134.832 181.058 132.888 181.058 130.68C181.058 128.616 181.458 126.696 182.258 124.92C183.058 123.128 184.258 121.68 185.858 120.576C187.458 119.472 189.458 118.92 191.858 118.92C193.298 118.92 194.578 119.08 195.698 119.4C196.834 119.72 197.778 120.104 198.53 120.552C199.298 120.984 199.842 121.368 200.162 121.704C200.178 121 200.218 120.128 200.282 119.088C200.362 118.048 200.442 116.944 200.522 115.776C200.602 114.608 200.682 113.48 200.762 112.392C200.842 111.288 200.914 110.32 200.978 109.488C201.058 108.656 201.114 108.072 201.146 107.736C201.786 107.736 202.49 107.768 203.258 107.832C204.042 107.896 204.714 107.984 205.274 108.096C204.986 111.84 204.762 115.568 204.602 119.28C204.458 122.976 204.362 126.712 204.314 130.488C204.266 134.248 204.242 138.08 204.242 141.984C204.002 141.984 203.594 141.976 203.018 141.96C202.458 141.96 201.89 141.952 201.314 141.936C200.738 141.904 200.306 141.88 200.018 141.864ZM192.362 137.424C193.466 137.424 194.45 137.264 195.314 136.944C196.178 136.608 196.914 136.208 197.522 135.744C198.13 135.264 198.626 134.792 199.01 134.328C199.41 133.848 199.69 133.464 199.85 133.176C199.85 132.808 199.85 132.272 199.85 131.568C199.866 130.848 199.874 130.096 199.874 129.312C199.89 128.512 199.898 127.768 199.898 127.08C199.914 126.392 199.93 125.88 199.946 125.544C199.578 125.208 199.026 124.84 198.29 124.44C197.57 124.04 196.722 123.696 195.746 123.408C194.77 123.12 193.722 122.976 192.602 122.976C190.314 122.976 188.562 123.648 187.346 124.992C186.146 126.32 185.546 128.128 185.546 130.416C185.546 132.72 186.13 134.464 187.298 135.648C188.482 136.832 190.17 137.424 192.362 137.424Z" fill="#2C2C2C"/>
<path d="M217.162 141.96C216.938 141.976 216.586 142 216.106 142.032C215.626 142.064 215.138 142.08 214.642 142.08C214.194 142.08 213.762 142.064 213.346 142.032C212.93 142 212.538 141.96 212.17 141.912C212.234 141.496 212.314 140.64 212.41 139.344C212.506 138.032 212.602 136.48 212.698 134.688C212.794 132.896 212.882 131.048 212.962 129.144C213.042 127.24 213.106 125.464 213.154 123.816C213.202 122.152 213.226 120.832 213.226 119.856C213.402 119.84 213.682 119.824 214.066 119.808C214.466 119.792 214.898 119.776 215.362 119.76C215.826 119.728 216.266 119.704 216.682 119.688C217.098 119.672 217.41 119.664 217.618 119.664C217.682 120.096 217.722 120.76 217.738 121.656C217.77 122.536 217.786 123.536 217.786 124.656C217.786 126.144 217.77 127.768 217.738 129.528C217.722 131.288 217.682 133.016 217.618 134.712C217.554 136.408 217.482 137.904 217.402 139.2C217.338 140.496 217.258 141.416 217.162 141.96ZM215.698 115.92C214.61 115.92 213.746 115.592 213.106 114.936C212.466 114.28 212.146 113.456 212.146 112.464C212.146 111.712 212.306 111.088 212.626 110.592C212.946 110.08 213.362 109.696 213.874 109.44C214.402 109.168 214.97 109.032 215.578 109.032C216.554 109.032 217.338 109.376 217.93 110.064C218.538 110.752 218.842 111.608 218.842 112.632C218.842 113.528 218.554 114.304 217.978 114.96C217.418 115.6 216.658 115.92 215.698 115.92Z" fill="#2C2C2C"/>
<path d="M237.797 142.68C233.605 142.68 230.509 141.512 228.509 139.176C226.509 136.84 225.509 133.48 225.509 129.096C225.509 126.328 226.021 123.992 227.045 122.088C228.085 120.184 229.525 118.736 231.365 117.744C233.221 116.752 235.381 116.256 237.845 116.256C240.453 116.256 242.605 116.864 244.301 118.08C245.997 119.28 247.253 120.96 248.069 123.12C248.901 125.264 249.317 127.76 249.317 130.608C249.317 133.056 248.861 135.184 247.949 136.992C247.037 138.784 245.717 140.184 243.989 141.192C242.277 142.184 240.213 142.68 237.797 142.68ZM237.605 138.384C238.901 138.384 240.013 138.144 240.941 137.664C241.869 137.184 242.621 136.544 243.197 135.744C243.773 134.928 244.197 134.016 244.469 133.008C244.757 132 244.901 130.968 244.901 129.912C244.901 127.992 244.637 126.28 244.109 124.776C243.581 123.272 242.781 122.096 241.709 121.248C240.637 120.384 239.269 119.952 237.605 119.952C235.973 119.952 234.605 120.344 233.501 121.128C232.397 121.912 231.565 122.992 231.005 124.368C230.461 125.744 230.189 127.32 230.189 129.096C230.189 131.832 230.821 134.064 232.085 135.792C233.349 137.52 235.189 138.384 237.605 138.384Z" fill="#2C2C2C"/>
<path d="M113.936 220.65H120.793V227.507H115.936C114.831 227.507 113.936 226.612 113.936 225.507V220.65ZM113.936 213.793H120.793V220.65H113.936V213.793ZM113.936 206.936H120.793V213.793H113.936V206.936ZM113.936 200.078H120.793V206.936H113.936V200.078ZM113.936 193.221H120.793V200.078H113.936V193.221ZM113.936 186.364H120.793V193.221H113.936V186.364ZM120.793 186.364H127.65V193.221H120.793V186.364ZM120.793 179.507H127.65V186.364H120.793V179.507ZM120.793 172.65H127.65V179.507H120.793V172.65ZM120.793 165.793H127.65V172.65H120.793V165.793ZM113.936 165.793H120.793V172.65H113.936V165.793ZM113.936 160.936C113.936 159.831 114.831 158.936 115.936 158.936H120.793V165.793H113.936V160.936ZM113.936 172.65H120.793V179.507H113.936V172.65ZM113.936 179.507H120.793V186.364H113.936V179.507ZM120.793 158.936H125.65C126.754 158.936 127.65 159.831 127.65 160.936V165.793H120.793V158.936ZM120.793 193.221H127.65V200.078H120.793V193.221ZM120.793 200.078H127.65V206.936H120.793V200.078ZM120.793 206.936H127.65V213.793H120.793V206.936ZM120.793 213.793H127.65V220.65H120.793V213.793ZM120.793 220.65H127.65V225.507C127.65 226.612 126.754 227.507 125.65 227.507H120.793V220.65ZM127.65 172.65H134.507V179.507H127.65V172.65ZM127.65 179.507H134.507V186.364H127.65V179.507ZM134.507 179.507H141.364V186.364H134.507V179.507ZM134.507 186.364H141.364V193.221H136.507C135.402 193.221 134.507 192.326 134.507 191.221V186.364ZM141.364 186.364H148.221V193.221H141.364V186.364ZM141.364 193.221H148.221V198.078C148.221 199.183 147.326 200.078 146.221 200.078H143.364C142.26 200.078 141.364 199.183 141.364 198.078V193.221ZM148.221 186.364H155.078V191.221C155.078 192.326 154.183 193.221 153.078 193.221H148.221V186.364ZM148.221 179.507H155.078V186.364H148.221V179.507ZM155.078 179.507H161.936V186.364H155.078V179.507ZM155.078 172.65H161.936V179.507H155.078V172.65ZM161.936 160.936C161.936 159.831 162.831 158.936 163.936 158.936H168.793V165.793H161.936V160.936ZM161.936 165.793H168.793V172.65H161.936V165.793ZM161.936 172.65H168.793V179.507H161.936V172.65ZM161.936 179.507H168.793V186.364H161.936V179.507ZM161.936 186.364H168.793V193.221H161.936V186.364ZM161.936 193.221H168.793V200.078H161.936V193.221ZM161.936 200.078H168.793V206.936H161.936V200.078ZM161.936 206.936H168.793V213.793H161.936V206.936ZM161.936 213.793H168.793V220.65H161.936V213.793ZM161.936 220.65H168.793V227.507H163.936C162.831 227.507 161.936 226.612 161.936 225.507V220.65ZM168.793 220.65H175.65V225.507C175.65 226.612 174.754 227.507 173.65 227.507H168.793V220.65ZM168.793 213.793H175.65V220.65H168.793V213.793ZM168.793 206.936H175.65V213.793H168.793V206.936ZM168.793 200.078H175.65V206.936H168.793V200.078ZM168.793 193.221H175.65V200.078H168.793V193.221ZM168.793 186.364H175.65V193.221H168.793V186.364ZM168.793 179.507H175.65V186.364H168.793V179.507ZM168.793 172.65H175.65V179.507H168.793V172.65ZM168.793 165.793H175.65V172.65H168.793V165.793ZM168.793 158.936H173.65C174.754 158.936 175.65 159.831 175.65 160.936V165.793H168.793V158.936ZM127.65 165.793H132.507C133.612 165.793 134.507 166.688 134.507 167.793V172.65H127.65V165.793ZM134.507 172.65H139.364C140.469 172.65 141.364 173.545 141.364 174.65V179.507H134.507V172.65ZM141.364 179.507H148.221V186.364H141.364V179.507ZM148.221 174.65C148.221 173.545 149.117 172.65 150.221 172.65H155.078V179.507H148.221V174.65ZM155.078 167.793C155.078 166.688 155.974 165.793 157.078 165.793H161.936V172.65H155.078V167.793Z" fill="#F7B51D"/>
<path d="M182.561 220.65H189.418V227.507H184.561C183.456 227.507 182.561 226.612 182.561 225.507V220.65ZM182.561 213.793H189.418V220.65H182.561V213.793ZM182.561 206.936H189.418V213.793H182.561V206.936ZM182.561 200.078H189.418V206.936H182.561V200.078ZM182.561 193.221H189.418V200.078H182.561V193.221ZM182.561 186.364H189.418V193.221H182.561V186.364ZM189.418 186.364H196.275V193.221H189.418V186.364ZM189.418 179.507H196.275V186.364H189.418V179.507ZM189.418 172.65H196.275V179.507H189.418V172.65ZM189.418 165.793H196.275V172.65H189.418V165.793ZM182.561 165.793H189.418V172.65H182.561V165.793ZM182.561 160.936C182.561 159.831 183.456 158.936 184.561 158.936H189.418V165.793H182.561V160.936ZM182.561 172.65H189.418V179.507H182.561V172.65ZM182.561 179.507H189.418V186.364H182.561V179.507ZM189.418 158.936H194.275C195.379 158.936 196.275 159.831 196.275 160.936V165.793H189.418V158.936ZM189.418 193.221H196.275V200.078H189.418V193.221ZM189.418 200.078H196.275V206.936H189.418V200.078ZM189.418 206.936H196.275V213.793H189.418V206.936ZM189.418 213.793H196.275V220.65H189.418V213.793ZM189.418 220.65H196.275V225.507C196.275 226.612 195.379 227.507 194.275 227.507H189.418V220.65ZM196.275 172.65H203.132V179.507H196.275V172.65ZM196.275 179.507H203.132V186.364H196.275V179.507ZM203.132 179.507H209.989V186.364H203.132V179.507ZM203.132 186.364H209.989V193.221H205.132C204.027 193.221 203.132 192.326 203.132 191.221V186.364ZM209.989 186.364H216.846V193.221H209.989V186.364ZM209.989 193.221H216.846V198.078C216.846 199.183 215.951 200.078 214.846 200.078H211.989C210.885 200.078 209.989 199.183 209.989 198.078V193.221ZM216.846 186.364H223.703V191.221C223.703 192.326 222.808 193.221 221.703 193.221H216.846V186.364ZM216.846 179.507H223.703V186.364H216.846V179.507ZM223.703 179.507H230.561V186.364H223.703V179.507ZM223.703 172.65H230.561V179.507H223.703V172.65ZM230.561 160.936C230.561 159.831 231.456 158.936 232.561 158.936H237.418V165.793H230.561V160.936ZM230.561 165.793H237.418V172.65H230.561V165.793ZM230.561 172.65H237.418V179.507H230.561V172.65ZM230.561 179.507H237.418V186.364H230.561V179.507ZM230.561 186.364H237.418V193.221H230.561V186.364ZM230.561 193.221H237.418V200.078H230.561V193.221ZM230.561 200.078H237.418V206.936H230.561V200.078ZM230.561 206.936H237.418V213.793H230.561V206.936ZM230.561 213.793H237.418V220.65H230.561V213.793ZM230.561 220.65H237.418V227.507H232.561C231.456 227.507 230.561 226.612 230.561 225.507V220.65ZM237.418 220.65H244.275V225.507C244.275 226.612 243.379 227.507 242.275 227.507H237.418V220.65ZM237.418 213.793H244.275V220.65H237.418V213.793ZM237.418 206.936H244.275V213.793H237.418V206.936ZM237.418 200.078H244.275V206.936H237.418V200.078ZM237.418 193.221H244.275V200.078H237.418V193.221ZM237.418 186.364H244.275V193.221H237.418V186.364ZM237.418 179.507H244.275V186.364H237.418V179.507ZM237.418 172.65H244.275V179.507H237.418V172.65ZM237.418 165.793H244.275V172.65H237.418V165.793ZM237.418 158.936H242.275C243.379 158.936 244.275 159.831 244.275 160.936V165.793H237.418V158.936ZM196.275 165.793H201.132C202.237 165.793 203.132 166.688 203.132 167.793V172.65H196.275V165.793ZM203.132 172.65H207.989C209.094 172.65 209.989 173.545 209.989 174.65V179.507H203.132V172.65ZM209.989 179.507H216.846V186.364H209.989V179.507ZM216.846 174.65C216.846 173.545 217.742 172.65 218.846 172.65H223.703V179.507H216.846V174.65ZM223.703 167.793C223.703 166.688 224.599 165.793 225.703 165.793H230.561V172.65H223.703V167.793Z" fill="#2C2C2C"/>
<path d="M251.186 220.65H258.043V227.507H253.186C252.081 227.507 251.186 226.612 251.186 225.507V220.65ZM258.043 220.65H264.9V225.507C264.9 226.612 264.004 227.507 262.9 227.507H258.043V220.65ZM258.043 213.793H264.9V220.65H258.043V213.793ZM258.043 206.936H264.9V213.793H258.043V206.936ZM258.043 200.078H264.9V206.936H258.043V200.078ZM258.043 193.221H264.9V200.078H258.043V193.221ZM258.043 186.364H264.9V193.221H258.043V186.364ZM251.186 186.364H258.043V193.221H251.186V186.364ZM251.186 193.221H258.043V200.078H251.186V193.221ZM251.186 200.078H258.043V206.936H251.186V200.078ZM251.186 206.936H258.043V213.793H251.186V206.936ZM251.186 213.793H258.043V220.65H251.186V213.793ZM251.186 179.507H258.043V186.364H251.186V179.507ZM258.043 179.507H264.9V186.364H258.043V179.507ZM258.043 172.65H264.9V179.507H258.043V172.65ZM258.043 165.793H264.9V172.65H258.043V165.793ZM258.043 158.936H262.9C264.004 158.936 264.9 159.831 264.9 160.936V165.793H258.043V158.936ZM251.186 160.936C251.186 159.831 252.081 158.936 253.186 158.936H258.043V165.793H251.186V160.936ZM251.186 165.793H258.043V172.65H251.186V165.793ZM251.186 172.65H258.043V179.507H251.186V172.65Z" fill="#2C2C2C"/>
<path d="M137.721 254.128C137.721 257.106 135.306 259.521 132.328 259.521C129.35 259.521 126.936 257.106 126.936 254.128C126.936 251.15 129.35 248.736 132.328 248.736C135.306 248.736 137.721 251.15 137.721 254.128Z" fill="#F7B51D"/>
<path d="M201.276 254.128C201.276 257.106 198.862 259.521 195.884 259.521C192.905 259.521 190.491 257.106 190.491 254.128C190.491 251.15 192.905 248.736 195.884 248.736C198.862 248.736 201.276 251.15 201.276 254.128Z" fill="#F7B51D"/>
<path d="M252.121 254.128C252.121 257.106 249.706 259.521 246.728 259.521C243.75 259.521 241.336 257.106 241.336 254.128C241.336 251.15 243.75 248.736 246.728 248.736C249.706 248.736 252.121 251.15 252.121 254.128Z" fill="#2C2C2C"/>
<path d="M139.647 246.187C139.647 243.978 141.437 242.187 143.647 242.187H146.432C148.641 242.187 150.432 243.978 150.432 246.187V262.069C150.432 264.278 148.641 266.069 146.432 266.069H143.647C141.437 266.069 139.647 264.278 139.647 262.069V246.187Z" fill="#2C2C2C"/>
<path d="M152.358 235.787C152.358 233.578 154.149 231.787 156.358 231.787H159.143C161.352 231.787 163.143 233.578 163.143 235.787V272.084C163.143 274.293 161.352 276.084 159.143 276.084H156.358C154.149 276.084 152.358 274.293 152.358 272.084V235.787Z" fill="#F7B51D"/>
<path d="M165.069 241.95C165.069 239.741 166.86 237.95 169.069 237.95H171.854C174.063 237.95 175.854 239.741 175.854 241.95V266.306C175.854 268.515 174.063 270.306 171.854 270.306H169.069C166.86 270.306 165.069 268.515 165.069 266.306V241.95Z" fill="#2C2C2C"/>
<path d="M177.78 247.728C177.78 245.519 179.571 243.728 181.78 243.728H184.565C186.774 243.728 188.565 245.519 188.565 247.728V260.143C188.565 262.352 186.774 264.143 184.565 264.143H181.78C179.571 264.143 177.78 262.352 177.78 260.143V247.728Z" fill="#2C2C2C"/>
<path d="M228.624 247.728C228.624 245.519 230.415 243.728 232.624 243.728H235.41C237.619 243.728 239.41 245.519 239.41 247.728V260.143C239.41 262.352 237.619 264.143 235.41 264.143H232.624C230.415 264.143 228.624 262.352 228.624 260.143V247.728Z" fill="#2C2C2C"/>
<path d="M203.202 239.639C203.202 237.43 204.993 235.639 207.202 235.639H209.987C212.197 235.639 213.987 237.43 213.987 239.639V268.232C213.987 270.441 212.197 272.232 209.987 272.232H207.202C204.993 272.232 203.202 270.441 203.202 268.232V239.639Z" fill="#2C2C2C"/>
<path d="M215.913 231.936C215.913 229.726 217.704 227.936 219.913 227.936H222.698C224.908 227.936 226.698 229.726 226.698 231.936V275.936C226.698 278.145 224.908 279.936 222.698 279.936H219.913C217.704 279.936 215.913 278.145 215.913 275.936V231.936Z" fill="#F7B51D"/>
</svg>
