<svg width="39" height="39" viewBox="0 0 39 39" fill="none" xmlns="http://www.w3.org/2000/svg">
<path d="M20.9847 3.27752C22.4613 1.72007 25.0385 2.31354 25.7191 4.29774L25.779 4.4943L26.8963 8.6669C27.203 8.83663 27.4998 9.01973 27.7856 9.21602L31.9565 9.10586L32.1616 9.10754C34.2577 9.19555 35.5592 11.4972 34.4858 13.3557L32.4465 16.8854C32.4956 17.2797 32.5246 17.6782 32.5301 18.0804L35.5943 20.9849C37.2017 22.5091 36.5171 25.206 34.3775 25.7792L30.2613 26.8806C30.0744 27.2052 29.8716 27.5174 29.6547 27.8178L29.765 31.9565C29.824 34.171 27.4335 35.5937 25.5151 34.4858L21.755 32.3144C21.4898 32.338 21.223 32.352 20.9545 32.3561L17.8859 35.5942C16.3618 37.2016 13.6647 36.5171 13.0916 34.3775L11.9073 29.9531C11.7446 29.854 11.5849 29.7511 11.4285 29.6442L6.9144 29.765C4.69985 29.824 3.27711 27.4334 4.38507 25.5151L6.69947 21.5051C6.68859 21.3723 6.67895 21.2392 6.67295 21.1055L3.27756 17.8861C1.66989 16.3619 2.35441 13.6649 4.49434 13.0918L8.97514 11.8916C9.05613 11.7534 9.14014 11.6177 9.22672 11.4839L9.1059 6.91436C9.0487 4.76892 11.2904 3.36669 13.1747 4.2887L13.3558 4.38503L17.1301 6.56406C17.3951 6.53278 17.6619 6.50991 17.9306 6.49823L20.9847 3.27752Z" fill="#FEFEFE" stroke="#78D570" stroke-width="3"/>
<path d="M21.7108 3.96556C22.6971 2.92522 24.4419 3.36803 24.8127 4.75281L26.044 9.34931C26.5505 9.60241 27.0288 9.89581 27.4762 10.2246L31.9839 10.1052C33.4168 10.0673 34.3372 11.6147 33.6203 12.856L31.41 16.6818C31.5049 17.2792 31.5436 17.8895 31.5262 18.5067L34.9053 21.7108C35.9456 22.6971 35.5028 24.4418 34.118 24.8127L29.5898 26.025C29.3164 26.5488 29.001 27.0421 28.6461 27.5003L28.7656 31.9839C28.8035 33.4166 27.2571 34.337 26.0158 33.6205L21.9747 31.286C21.4983 31.3436 21.015 31.366 20.527 31.3529L17.1601 34.9052C16.1737 35.9456 14.429 35.5028 14.0582 34.118L12.7656 29.2944C12.4074 29.0952 12.0653 28.8745 11.7389 28.6358L6.88789 28.7658C5.45497 28.804 4.53382 27.2571 5.2504 26.0158L7.72566 21.7293C7.68601 21.3796 7.66287 21.0263 7.661 20.6701C7.64837 20.6564 7.63692 20.6413 7.62325 20.6283L3.9656 17.16C2.92526 16.1737 3.36807 14.429 4.75285 14.0582L9.62175 12.7539C9.62897 12.752 9.63573 12.7483 9.64286 12.7462C9.82303 12.4082 10.0205 12.083 10.2356 11.7722L10.105 6.88785C10.0668 5.45479 11.6146 4.53362 12.856 5.2506L16.921 7.59812C17.3972 7.52579 17.8817 7.48811 18.371 7.48653L21.7108 3.96556Z" fill="#FEFEFE" stroke="#2C2C2C"/>
<path d="M13.2374 11.5586C13.2895 11.4675 13.3658 11.3839 13.4665 11.3079C13.5689 11.2318 13.6841 11.1705 13.8121 11.1241C13.9418 11.0776 14.072 11.0533 14.2026 11.051C14.2866 11.0496 14.3717 11.0561 14.4578 11.0705C14.5439 11.0832 14.6113 11.1023 14.6601 11.128L14.5622 11.6632C14.519 11.6462 14.4632 11.6286 14.3949 11.6103C14.3284 11.5902 14.2459 11.581 14.1475 11.5827C14.042 11.5846 13.9369 11.6058 13.832 11.6466C13.729 11.6855 13.6342 11.7384 13.5477 11.8054C13.4612 11.8724 13.3892 11.9488 13.3317 12.0347C13.3589 12.1581 13.3858 12.3089 13.4122 12.4871C13.4403 12.6653 13.4659 12.848 13.4889 13.0352C13.5119 13.2223 13.531 13.3936 13.5463 13.549C13.5615 13.7027 13.5698 13.8184 13.5712 13.8963C13.4944 13.9047 13.4006 13.9107 13.2898 13.9144C13.1789 13.9181 13.077 13.9198 12.9839 13.9197C12.981 13.7552 12.9744 13.5819 12.964 13.3998C12.9536 13.216 12.9387 13.0287 12.9192 12.838C12.9015 12.6455 12.8794 12.4539 12.8527 12.2633C12.8261 12.0726 12.7951 11.8883 12.7598 11.7102C12.7262 11.5303 12.6883 11.3602 12.6461 11.2C12.6942 11.185 12.7503 11.1699 12.8144 11.1546C12.8803 11.1393 12.9409 11.1259 12.9961 11.1143C13.0514 11.1027 13.0888 11.0959 13.1085 11.0938C13.1328 11.1535 13.1583 11.2309 13.185 11.326C13.2118 11.4211 13.2292 11.4986 13.2374 11.5586Z" fill="#2C2C2C"/>
<path d="M16.2402 13.9139C16.0166 13.9177 15.8131 13.8921 15.6297 13.8368C15.448 13.7798 15.3024 13.6868 15.1927 13.5578C15.0831 13.427 15.0263 13.2519 15.0225 13.0326C15.0188 12.8221 15.0756 12.6468 15.193 12.5068C15.3104 12.3668 15.4704 12.2623 15.6731 12.1933C15.8776 12.1226 16.1068 12.085 16.3608 12.0806C16.4788 12.0786 16.5943 12.0854 16.7073 12.1012C16.8203 12.1151 16.9181 12.1329 17.0007 12.1545C17.0834 12.1743 17.1391 12.1901 17.168 12.202C17.1616 12.1438 17.1498 12.0847 17.1326 12.0248C17.1172 11.9632 17.0939 11.9096 17.0627 11.8641C16.9927 11.7468 16.8917 11.6513 16.7598 11.5775C16.6296 11.5018 16.4671 11.4657 16.2722 11.4691C16.0665 11.4726 15.8929 11.5199 15.7514 11.6108C15.6099 11.6999 15.5044 11.8052 15.435 11.9267L14.9954 11.6504C15.0721 11.534 15.174 11.4306 15.3012 11.3399C15.4284 11.2492 15.5756 11.1768 15.7428 11.1226C15.91 11.0684 16.0902 11.0397 16.2833 11.0363C16.5838 11.0311 16.8334 11.0834 17.0321 11.1932C17.2308 11.303 17.3774 11.45 17.4719 11.6342C17.52 11.7271 17.5585 11.8291 17.5873 11.94C17.6161 12.051 17.6346 12.1887 17.6429 12.3531C17.6495 12.5263 17.6557 12.674 17.6614 12.7959C17.669 12.9179 17.6762 13.023 17.6831 13.1114C17.6941 13.2262 17.7133 13.3002 17.7407 13.3333C17.7681 13.3665 17.8069 13.3826 17.8569 13.3817C17.9142 13.3807 17.962 13.356 18.0005 13.3076C18.039 13.2574 18.0601 13.188 18.064 13.0995L18.3264 13.3763C18.3183 13.525 18.2676 13.6391 18.1742 13.7186C18.0808 13.7981 17.9706 13.8389 17.8436 13.8411C17.7434 13.8428 17.6546 13.8258 17.577 13.7899C17.5012 13.7523 17.4404 13.7038 17.3947 13.6445C17.3489 13.5851 17.3219 13.5237 17.3136 13.4601C17.279 13.5262 17.2104 13.5937 17.1079 13.6627C17.0071 13.7317 16.882 13.7904 16.7326 13.839C16.585 13.8858 16.4208 13.9108 16.2402 13.9139ZM16.3294 13.4957C16.4457 13.4937 16.5589 13.474 16.6692 13.4367C16.7794 13.3994 16.8805 13.3508 16.9725 13.2908C17.0663 13.2308 17.1429 13.1649 17.2025 13.0931C17.1987 12.9835 17.197 12.8862 17.1973 12.8013C17.1976 12.7146 17.1989 12.635 17.2011 12.5624C17.149 12.5456 17.0493 12.5243 16.9022 12.4985C16.755 12.471 16.5893 12.4588 16.4051 12.462C16.2459 12.4648 16.1014 12.4885 15.9716 12.5332C15.8436 12.5761 15.7418 12.6371 15.6663 12.7163C15.5925 12.7954 15.5566 12.8898 15.5586 12.9994C15.5609 13.1321 15.5949 13.235 15.6606 13.3082C15.7281 13.3796 15.8193 13.4293 15.9343 13.4574C16.0493 13.4855 16.181 13.4982 16.3294 13.4957Z" fill="#2C2C2C"/>
<path d="M20.5846 13.7752C20.5841 13.7451 20.5824 13.7 20.5796 13.6399C20.5767 13.578 20.5747 13.5179 20.5737 13.4596C20.5727 13.3994 20.5719 13.3552 20.5714 13.3269C20.5592 13.3483 20.5321 13.3833 20.49 13.4318C20.448 13.4803 20.388 13.5318 20.3103 13.5862C20.2343 13.6406 20.1377 13.6874 20.0203 13.7265C19.9029 13.7657 19.7628 13.7867 19.6001 13.7895C19.3604 13.7937 19.1548 13.7459 18.9831 13.6463C18.8113 13.5448 18.6791 13.402 18.5864 13.2179C18.4955 13.0337 18.4479 12.8195 18.4436 12.5754C18.4396 12.3473 18.4805 12.1343 18.5665 11.9364C18.6524 11.7367 18.7837 11.5744 18.9604 11.4492C19.1371 11.3241 19.3595 11.2592 19.6278 11.2546C19.7888 11.2518 19.9321 11.267 20.058 11.3002C20.1856 11.3334 20.2918 11.3741 20.3767 11.4221C20.4634 11.4684 20.525 11.5098 20.5614 11.5463C20.5618 11.4685 20.5646 11.372 20.5697 11.2569C20.5766 11.1418 20.5834 11.0196 20.5901 10.8903C20.5967 10.761 20.6035 10.6362 20.6103 10.5158C20.6171 10.3936 20.6233 10.2864 20.6288 10.1943C20.6361 10.1022 20.6412 10.0375 20.6441 10.0003C20.7157 9.9991 20.7944 10.0013 20.8804 10.0069C20.9682 10.0124 21.0434 10.0209 21.1063 10.0322C21.0814 10.4466 21.0636 10.8591 21.053 11.2698C21.0441 11.6786 21.0406 12.0918 21.0426 12.5093C21.0446 12.9251 21.0494 13.3487 21.057 13.7803C21.0302 13.7808 20.9846 13.7807 20.9202 13.78C20.8576 13.7811 20.7941 13.7813 20.7296 13.7806C20.6652 13.7782 20.6169 13.7764 20.5846 13.7752ZM19.7202 13.2991C19.8436 13.297 19.9533 13.2774 20.0493 13.2404C20.1452 13.2016 20.2267 13.1559 20.2937 13.1035C20.3607 13.0492 20.4153 12.9961 20.4573 12.9441C20.5011 12.8902 20.5316 12.8472 20.5489 12.8151C20.5482 12.7744 20.5472 12.7152 20.5458 12.6373C20.5462 12.5577 20.5456 12.4746 20.5441 12.3879C20.5443 12.2994 20.5437 12.2172 20.5424 12.1411C20.5428 12.065 20.5436 12.0084 20.5448 11.9712C20.503 11.9348 20.4406 11.8952 20.3575 11.8524C20.2763 11.8096 20.1808 11.7732 20.0711 11.7432C19.9615 11.7133 19.8441 11.6994 19.7189 11.7015C19.4631 11.7059 19.2686 11.7836 19.1353 11.9345C19.0038 12.0836 18.9402 12.2847 18.9447 12.5376C18.9492 12.7923 19.0179 12.984 19.1508 13.1126C19.2854 13.2412 19.4752 13.3034 19.7202 13.2991Z" fill="#2C2C2C"/>
<path d="M22.501 13.7527C22.476 13.7549 22.4367 13.7582 22.3831 13.7627C22.3296 13.7672 22.275 13.7699 22.2196 13.7708C22.1695 13.7717 22.1212 13.7708 22.0747 13.768C22.0281 13.7653 21.9842 13.7616 21.943 13.757C21.9493 13.7109 21.9566 13.6162 21.9648 13.4727C21.973 13.3275 21.9807 13.1557 21.9879 12.9574C21.9951 12.7592 22.0014 12.5547 22.0066 12.3441C22.0118 12.1334 22.0155 11.937 22.0176 11.7547C22.0198 11.5707 22.0199 11.4247 22.018 11.3168C22.0376 11.3147 22.0689 11.3124 22.1118 11.3099C22.1564 11.3074 22.2047 11.3048 22.2565 11.3021C22.3083 11.2977 22.3575 11.2942 22.4039 11.2916C22.4504 11.289 22.4853 11.2875 22.5085 11.2871C22.5165 11.3348 22.5223 11.4081 22.5258 11.5071C22.5311 11.6043 22.5348 11.7148 22.537 11.8386C22.5399 12.0031 22.5413 12.1827 22.5412 12.3773C22.5428 12.5719 22.5417 12.763 22.5379 12.9506C22.534 13.1382 22.5289 13.3037 22.5225 13.4471C22.5179 13.5905 22.5107 13.6924 22.501 13.7527ZM22.2866 10.877C22.165 10.8791 22.0678 10.8445 21.995 10.7732C21.9221 10.7019 21.8848 10.6114 21.8828 10.5018C21.8814 10.4186 21.898 10.3493 21.9328 10.2939C21.9676 10.2367 22.0134 10.1934 22.0701 10.1641C22.1286 10.1331 22.1918 10.1169 22.2597 10.1158C22.3688 10.1139 22.4571 10.1504 22.5247 10.2253C22.594 10.3002 22.6296 10.3942 22.6316 10.5074C22.6334 10.6065 22.6027 10.6928 22.5396 10.7664C22.4782 10.8383 22.3939 10.8751 22.2866 10.877Z" fill="#2C2C2C"/>
<path d="M24.809 13.7925C24.3404 13.8006 23.9921 13.6774 23.764 13.4231C23.5359 13.1687 23.4175 12.7992 23.409 12.3146C23.4036 12.0086 23.4563 11.7494 23.567 11.5369C23.6795 11.3244 23.8377 11.1616 24.0414 11.0484C24.2469 10.9351 24.4874 10.8761 24.7628 10.8714C25.0543 10.8663 25.296 10.9294 25.488 11.0605C25.6799 11.1899 25.8235 11.3732 25.919 11.6104C26.0161 11.8458 26.0675 12.1209 26.0731 12.4358C26.0778 12.7064 26.031 12.9425 25.9326 13.1441C25.8342 13.344 25.6894 13.5013 25.4982 13.6161C25.3088 13.729 25.079 13.7878 24.809 13.7925ZM24.7791 13.318C24.924 13.3155 25.0478 13.2868 25.1506 13.2319C25.2534 13.1771 25.3362 13.1049 25.399 13.0153C25.4618 12.924 25.5074 12.8224 25.5359 12.7104C25.5661 12.5984 25.5802 12.4841 25.5781 12.3673C25.5744 12.1551 25.5415 11.9664 25.4796 11.8011C25.4176 11.6359 25.3259 11.5074 25.2044 11.4157C25.0829 11.3223 24.9292 11.2772 24.7432 11.2804C24.5607 11.2835 24.4086 11.3295 24.2867 11.4183C24.1649 11.5071 24.074 11.6281 24.0141 11.7813C23.9559 11.9345 23.9286 12.1092 23.9321 12.3055C23.9374 12.608 24.0124 12.8535 24.1571 13.0421C24.3017 13.2307 24.5091 13.3226 24.7791 13.318Z" fill="#2C2C2C"/>
<path d="M11.1165 22.6507L11.883 22.6375L11.8964 23.3955L11.3535 23.4049C11.23 23.407 11.1282 23.3097 11.126 23.1876L11.1165 22.6507ZM11.1032 21.8927L11.8696 21.8794L11.883 22.6375L11.1165 22.6507L11.1032 21.8927ZM11.0898 21.1347L11.8562 21.1214L11.8696 21.8794L11.1032 21.8927L11.0898 21.1347ZM11.0764 20.3766L11.8429 20.3634L11.8562 21.1214L11.0898 21.1347L11.0764 20.3766ZM11.063 19.6186L11.8295 19.6054L11.8429 20.3634L11.0764 20.3766L11.063 19.6186ZM11.0496 18.8606L11.8161 18.8474L11.8295 19.6054L11.063 19.6186L11.0496 18.8606ZM11.8161 18.8474L12.5826 18.8341L12.5959 19.5921L11.8295 19.6054L11.8161 18.8474ZM11.8027 18.0893L12.5692 18.0761L12.5826 18.8341L11.8161 18.8474L11.8027 18.0893ZM11.7893 17.3313L12.5558 17.3181L12.5692 18.0761L11.8027 18.0893L11.7893 17.3313ZM11.776 16.5733L12.5424 16.5601L12.5558 17.3181L11.7893 17.3313L11.776 16.5733ZM11.0095 16.5865L11.776 16.5733L11.7893 17.3313L11.0229 17.3445L11.0095 16.5865ZM11 16.0496C10.9979 15.9275 11.0962 15.8268 11.2197 15.8246L11.7626 15.8153L11.776 16.5733L11.0095 16.5865L11 16.0496ZM11.0229 17.3445L11.7893 17.3313L11.8027 18.0893L11.0363 18.1026L11.0229 17.3445ZM11.0363 18.1026L11.8027 18.0893L11.8161 18.8474L11.0496 18.8606L11.0363 18.1026ZM11.7626 15.8153L12.3055 15.8059C12.429 15.8038 12.5308 15.901 12.5329 16.0231L12.5424 16.5601L11.776 16.5733L11.7626 15.8153ZM11.8295 19.6054L12.5959 19.5921L12.6093 20.3502L11.8429 20.3634L11.8295 19.6054ZM11.8429 20.3634L12.6093 20.3502L12.6227 21.1082L11.8562 21.1214L11.8429 20.3634ZM11.8562 21.1214L12.6227 21.1082L12.6361 21.8662L11.8696 21.8794L11.8562 21.1214ZM11.8696 21.8794L12.6361 21.8662L12.6494 22.6242L11.883 22.6375L11.8696 21.8794ZM11.883 22.6375L12.6494 22.6242L12.6589 23.1612C12.6611 23.2833 12.5627 23.384 12.4393 23.3861L11.8964 23.3955L11.883 22.6375ZM12.5558 17.3181L13.3222 17.3049L13.3356 18.0629L12.5692 18.0761L12.5558 17.3181ZM12.5692 18.0761L13.3356 18.0629L13.349 18.8209L12.5826 18.8341L12.5692 18.0761ZM13.3356 18.0629L14.1021 18.0496L14.1155 18.8077L13.349 18.8209L13.3356 18.0629ZM13.349 18.8209L14.1155 18.8077L14.1288 19.5657L13.5859 19.5751C13.4625 19.5772 13.3606 19.4799 13.3585 19.3578L13.349 18.8209ZM14.1155 18.8077L14.8819 18.7944L14.8953 19.5525L14.1288 19.5657L14.1155 18.8077ZM14.1288 19.5657L14.8953 19.5525L14.9048 20.0894C14.9069 20.2115 14.8086 20.3122 14.6851 20.3143L14.3658 20.3198C14.2423 20.322 14.1405 20.2247 14.1383 20.1026L14.1288 19.5657ZM14.8819 18.7944L15.6484 18.7812L15.6578 19.3181C15.66 19.4402 15.5617 19.541 15.4382 19.5431L14.8953 19.5525L14.8819 18.7944ZM14.8685 18.0364L15.635 18.0232L15.6484 18.7812L14.8819 18.7944L14.8685 18.0364ZM15.635 18.0232L16.4014 18.01L16.4148 18.768L15.6484 18.7812L15.635 18.0232ZM15.6216 17.2652L16.3881 17.2519L16.4014 18.01L15.635 18.0232L15.6216 17.2652ZM16.3652 15.957C16.3631 15.8349 16.4614 15.7342 16.5849 15.732L17.1278 15.7227L17.1411 16.4807L16.3747 16.4939L16.3652 15.957ZM16.3747 16.4939L17.1411 16.4807L17.1545 17.2387L16.3881 17.2519L16.3747 16.4939ZM16.3881 17.2519L17.1545 17.2387L17.1679 17.9967L16.4014 18.01L16.3881 17.2519ZM16.4014 18.01L17.1679 17.9967L17.1813 18.7547L16.4148 18.768L16.4014 18.01ZM16.4148 18.768L17.1813 18.7547L17.1947 19.5128L16.4282 19.526L16.4148 18.768ZM16.4282 19.526L17.1947 19.5128L17.208 20.2708L16.4416 20.284L16.4282 19.526ZM16.4416 20.284L17.208 20.2708L17.2214 21.0288L16.455 21.042L16.4416 20.284ZM16.455 21.042L17.2214 21.0288L17.2348 21.7868L16.4683 21.8001L16.455 21.042ZM16.4683 21.8001L17.2348 21.7868L17.2482 22.5448L16.4817 22.5581L16.4683 21.8001ZM16.4817 22.5581L17.2482 22.5448L17.2615 23.3029L16.7186 23.3122C16.5952 23.3144 16.4933 23.2171 16.4912 23.095L16.4817 22.5581ZM17.2482 22.5448L18.0146 22.5316L18.0241 23.0685C18.0263 23.1907 17.9279 23.2914 17.8044 23.2935L17.2615 23.3029L17.2482 22.5448ZM17.2348 21.7868L18.0012 21.7736L18.0146 22.5316L17.2482 22.5448L17.2348 21.7868ZM17.2214 21.0288L17.9879 21.0156L18.0012 21.7736L17.2348 21.7868L17.2214 21.0288ZM17.208 20.2708L17.9745 20.2576L17.9879 21.0156L17.2214 21.0288L17.208 20.2708ZM17.1947 19.5128L17.9611 19.4995L17.9745 20.2576L17.208 20.2708L17.1947 19.5128ZM17.1813 18.7547L17.9477 18.7415L17.9611 19.4995L17.1947 19.5128L17.1813 18.7547ZM17.1679 17.9967L17.9343 17.9835L17.9477 18.7415L17.1813 18.7547L17.1679 17.9967ZM17.1545 17.2387L17.921 17.2255L17.9343 17.9835L17.1679 17.9967L17.1545 17.2387ZM17.1411 16.4807L17.9076 16.4674L17.921 17.2255L17.1545 17.2387L17.1411 16.4807ZM17.1278 15.7227L17.6707 15.7133C17.7941 15.7112 17.896 15.8084 17.8981 15.9305L17.9076 16.4674L17.1411 16.4807L17.1278 15.7227ZM12.5424 16.5601L13.0853 16.5507C13.2088 16.5486 13.3106 16.6458 13.3128 16.7679L13.3222 17.3049L12.5558 17.3181L12.5424 16.5601ZM13.3222 17.3049L13.8652 17.2955C13.9886 17.2934 14.0905 17.3906 14.0926 17.5127L14.1021 18.0496L13.3356 18.0629L13.3222 17.3049ZM14.1021 18.0496L14.8685 18.0364L14.8819 18.7944L14.1155 18.8077L14.1021 18.0496ZM14.8591 17.4995C14.8569 17.3774 14.9552 17.2767 15.0787 17.2745L15.6216 17.2652L15.635 18.0232L14.8685 18.0364L14.8591 17.4995ZM15.6121 16.7282C15.61 16.6061 15.7083 16.5054 15.8318 16.5033L16.3747 16.4939L16.3881 17.2519L15.6216 17.2652L15.6121 16.7282Z" fill="#78D570"/>
<path d="M18.7871 22.5183L19.5535 22.505L19.5669 23.2631L19.024 23.2724C18.9005 23.2746 18.7987 23.1773 18.7965 23.0552L18.7871 22.5183ZM18.7737 21.7603L19.5401 21.747L19.5535 22.505L18.7871 22.5183L18.7737 21.7603ZM18.7603 21.0022L19.5268 20.989L19.5401 21.747L18.7737 21.7603L18.7603 21.0022ZM18.7469 20.2442L19.5134 20.231L19.5268 20.989L18.7603 21.0022L18.7469 20.2442ZM18.7335 19.4862L19.5 19.473L19.5134 20.231L18.7469 20.2442L18.7335 19.4862ZM18.7202 18.7282L19.4866 18.7149L19.5 19.473L18.7335 19.4862L18.7202 18.7282ZM19.4866 18.7149L20.2531 18.7017L20.2665 19.4597L19.5 19.473L19.4866 18.7149ZM19.4732 17.9569L20.2397 17.9437L20.2531 18.7017L19.4866 18.7149L19.4732 17.9569ZM19.4599 17.1989L20.2263 17.1857L20.2397 17.9437L19.4732 17.9569L19.4599 17.1989ZM19.4465 16.4409L20.2129 16.4276L20.2263 17.1857L19.4599 17.1989L19.4465 16.4409ZM18.68 16.4541L19.4465 16.4409L19.4599 17.1989L18.6934 17.2121L18.68 16.4541ZM18.6706 15.9172C18.6684 15.7951 18.7667 15.6944 18.8902 15.6922L19.4331 15.6829L19.4465 16.4409L18.68 16.4541L18.6706 15.9172ZM18.6934 17.2121L19.4599 17.1989L19.4732 17.9569L18.7068 17.9702L18.6934 17.2121ZM18.7068 17.9702L19.4732 17.9569L19.4866 18.7149L18.7202 18.7282L18.7068 17.9702ZM19.4331 15.6829L19.976 15.6735C20.0995 15.6714 20.2013 15.7686 20.2035 15.8907L20.2129 16.4276L19.4465 16.4409L19.4331 15.6829ZM19.5 19.473L20.2665 19.4597L20.2798 20.2178L19.5134 20.231L19.5 19.473ZM19.5134 20.231L20.2798 20.2178L20.2932 20.9758L19.5268 20.989L19.5134 20.231ZM19.5268 20.989L20.2932 20.9758L20.3066 21.7338L19.5401 21.747L19.5268 20.989ZM19.5401 21.747L20.3066 21.7338L20.32 22.4918L19.5535 22.505L19.5401 21.747ZM19.5535 22.505L20.32 22.4918L20.3294 23.0287C20.3316 23.1509 20.2333 23.2516 20.1098 23.2537L19.5669 23.2631L19.5535 22.505ZM20.2263 17.1857L20.9928 17.1724L21.0061 17.9305L20.2397 17.9437L20.2263 17.1857ZM20.2397 17.9437L21.0061 17.9305L21.0195 18.6885L20.2531 18.7017L20.2397 17.9437ZM21.0061 17.9305L21.7726 17.9172L21.786 18.6752L21.0195 18.6885L21.0061 17.9305ZM21.0195 18.6885L21.786 18.6752L21.7994 19.4333L21.2565 19.4426C21.133 19.4448 21.0312 19.3475 21.029 19.2254L21.0195 18.6885ZM21.786 18.6752L22.5524 18.662L22.5658 19.42L21.7994 19.4333L21.786 18.6752ZM21.7994 19.4333L22.5658 19.42L22.5753 19.957C22.5774 20.0791 22.4791 20.1798 22.3556 20.1819L22.0363 20.1874C21.9128 20.1896 21.811 20.0923 21.8088 19.9702L21.7994 19.4333ZM22.5524 18.662L23.3189 18.6488L23.3284 19.1857C23.3305 19.3078 23.2322 19.4085 23.1087 19.4107L22.5658 19.42L22.5524 18.662ZM22.5391 17.904L23.3055 17.8908L23.3189 18.6488L22.5524 18.662L22.5391 17.904ZM23.3055 17.8908L24.072 17.8775L24.0853 18.6356L23.3189 18.6488L23.3055 17.8908ZM23.2921 17.1327L24.0586 17.1195L24.072 17.8775L23.3055 17.8908L23.2921 17.1327ZM24.0357 15.8246C24.0336 15.7025 24.1319 15.6017 24.2554 15.5996L24.7983 15.5902L24.8117 16.3483L24.0452 16.3615L24.0357 15.8246ZM24.0452 16.3615L24.8117 16.3483L24.825 17.1063L24.0586 17.1195L24.0452 16.3615ZM24.0586 17.1195L24.825 17.1063L24.8384 17.8643L24.072 17.8775L24.0586 17.1195ZM24.072 17.8775L24.8384 17.8643L24.8518 18.6223L24.0853 18.6356L24.072 17.8775ZM24.0853 18.6356L24.8518 18.6223L24.8652 19.3803L24.0987 19.3936L24.0853 18.6356ZM24.0987 19.3936L24.8652 19.3803L24.8786 20.1384L24.1121 20.1516L24.0987 19.3936ZM24.1121 20.1516L24.8786 20.1384L24.8919 20.8964L24.1255 20.9096L24.1121 20.1516ZM24.1255 20.9096L24.8919 20.8964L24.9053 21.6544L24.1389 21.6676L24.1255 20.9096ZM24.1389 21.6676L24.9053 21.6544L24.9187 22.4124L24.1522 22.4257L24.1389 21.6676ZM24.1522 22.4257L24.9187 22.4124L24.9321 23.1705L24.3892 23.1798C24.2657 23.182 24.1639 23.0847 24.1617 22.9626L24.1522 22.4257ZM24.9187 22.4124L25.6851 22.3992L25.6946 22.9361C25.6968 23.0582 25.5984 23.1589 25.475 23.1611L24.9321 23.1705L24.9187 22.4124ZM24.9053 21.6544L25.6718 21.6412L25.6851 22.3992L24.9187 22.4124L24.9053 21.6544ZM24.8919 20.8964L25.6584 20.8832L25.6718 21.6412L24.9053 21.6544L24.8919 20.8964ZM24.8786 20.1384L25.645 20.1251L25.6584 20.8832L24.8919 20.8964L24.8786 20.1384ZM24.8652 19.3803L25.6316 19.3671L25.645 20.1251L24.8786 20.1384L24.8652 19.3803ZM24.8518 18.6223L25.6182 18.6091L25.6316 19.3671L24.8652 19.3803L24.8518 18.6223ZM24.8384 17.8643L25.6049 17.8511L25.6182 18.6091L24.8518 18.6223L24.8384 17.8643ZM24.825 17.1063L25.5915 17.093L25.6049 17.8511L24.8384 17.8643L24.825 17.1063ZM24.8117 16.3483L25.5781 16.335L25.5915 17.093L24.825 17.1063L24.8117 16.3483ZM24.7983 15.5902L25.3412 15.5809C25.4646 15.5787 25.5665 15.676 25.5686 15.7981L25.5781 16.335L24.8117 16.3483L24.7983 15.5902ZM20.2129 16.4276L20.7558 16.4183C20.8793 16.4161 20.9811 16.5134 20.9833 16.6355L20.9928 17.1724L20.2263 17.1857L20.2129 16.4276ZM20.9928 17.1724L21.5357 17.1631C21.6591 17.1609 21.761 17.2582 21.7631 17.3803L21.7726 17.9172L21.0061 17.9305L20.9928 17.1724ZM21.7726 17.9172L22.5391 17.904L22.5524 18.662L21.786 18.6752L21.7726 17.9172ZM22.5296 17.3671C22.5274 17.245 22.6258 17.1442 22.7492 17.1421L23.2921 17.1327L23.3055 17.8908L22.5391 17.904L22.5296 17.3671ZM23.2827 16.5958C23.2805 16.4737 23.3788 16.373 23.5023 16.3709L24.0452 16.3615L24.0586 17.1195L23.2921 17.1327L23.2827 16.5958Z" fill="#2C2C2C"/>
<path d="M26.4576 22.3859L27.224 22.3726L27.2374 23.1307L26.6945 23.14C26.571 23.1422 26.4692 23.0449 26.4671 22.9228L26.4576 22.3859ZM27.224 22.3726L27.9905 22.3594L28 22.8963C28.0021 23.0184 27.9038 23.1192 27.7803 23.1213L27.2374 23.1307L27.224 22.3726ZM27.2107 21.6146L27.9771 21.6014L27.9905 22.3594L27.224 22.3726L27.2107 21.6146ZM27.1973 20.8566L27.9637 20.8434L27.9771 21.6014L27.2107 21.6146L27.1973 20.8566ZM27.1839 20.0986L27.9504 20.0853L27.9637 20.8434L27.1973 20.8566L27.1839 20.0986ZM27.1705 19.3405L27.937 19.3273L27.9504 20.0853L27.1839 20.0986L27.1705 19.3405ZM27.1571 18.5825L27.9236 18.5693L27.937 19.3273L27.1705 19.3405L27.1571 18.5825ZM26.3907 18.5958L27.1571 18.5825L27.1705 19.3405L26.4041 19.3538L26.3907 18.5958ZM26.4041 19.3538L27.1705 19.3405L27.1839 20.0986L26.4174 20.1118L26.4041 19.3538ZM26.4174 20.1118L27.1839 20.0986L27.1973 20.8566L26.4308 20.8698L26.4174 20.1118ZM26.4308 20.8698L27.1973 20.8566L27.2107 21.6146L26.4442 21.6278L26.4308 20.8698ZM26.4442 21.6278L27.2107 21.6146L27.224 22.3726L26.4576 22.3859L26.4442 21.6278ZM26.3773 17.8377L27.1438 17.8245L27.1571 18.5825L26.3907 18.5958L26.3773 17.8377ZM27.1438 17.8245L27.9102 17.8113L27.9236 18.5693L27.1571 18.5825L27.1438 17.8245ZM27.1304 17.0665L27.8968 17.0533L27.9102 17.8113L27.1438 17.8245L27.1304 17.0665ZM27.117 16.3085L27.8835 16.2952L27.8968 17.0533L27.1304 17.0665L27.117 16.3085ZM27.1036 15.5504L27.6465 15.5411C27.77 15.5389 27.8718 15.6362 27.874 15.7583L27.8835 16.2952L27.117 16.3085L27.1036 15.5504ZM26.3411 15.7848C26.3389 15.6627 26.4373 15.5619 26.5607 15.5598L27.1036 15.5504L27.117 16.3085L26.3506 16.3217L26.3411 15.7848ZM26.3506 16.3217L27.117 16.3085L27.1304 17.0665L26.3639 17.0797L26.3506 16.3217ZM26.3639 17.0797L27.1304 17.0665L27.1438 17.8245L26.3773 17.8377L26.3639 17.0797Z" fill="#2C2C2C"/>
<path d="M13.8404 26.3057C13.8462 26.6349 13.5811 26.9064 13.2482 26.9122C12.9153 26.9179 12.6407 26.6557 12.6349 26.3265C12.6291 25.9972 12.8943 25.7257 13.2272 25.7199C13.56 25.7142 13.8346 25.9764 13.8404 26.3057Z" fill="#78D570"/>
<path d="M20.9443 26.183C20.9501 26.5122 20.685 26.7838 20.3521 26.7895C20.0192 26.7953 19.7446 26.5331 19.7388 26.2038C19.733 25.8746 19.9982 25.603 20.331 25.5973C20.6639 25.5916 20.9385 25.8538 20.9443 26.183Z" fill="#78D570"/>
<path d="M26.6274 26.0849C26.6332 26.4141 26.3681 26.6857 26.0352 26.6914C25.7023 26.6972 25.4277 26.435 25.4219 26.1057C25.4161 25.7765 25.6813 25.5049 26.0142 25.4992C26.347 25.4934 26.6216 25.7557 26.6274 26.0849Z" fill="#2C2C2C"/>
<path d="M14.0402 25.4241C14.0359 25.1799 14.2326 24.9785 14.4795 24.9742L14.7908 24.9689C15.0377 24.9646 15.2414 25.1591 15.2457 25.4033L15.2767 27.1589C15.281 27.4031 15.0843 27.6046 14.8374 27.6088L14.5261 27.6142C14.2792 27.6185 14.0755 27.424 14.0712 27.1797L14.0402 25.4241Z" fill="#2C2C2C"/>
<path d="M15.4407 24.2499C15.4364 24.0057 15.6331 23.8043 15.88 23.8L16.1913 23.7947C16.4382 23.7904 16.6419 23.9849 16.6462 24.2291L16.717 28.2415C16.7213 28.4857 16.5247 28.6871 16.2777 28.6914L15.9664 28.6968C15.7195 28.701 15.5158 28.5065 15.5115 28.2623L15.4407 24.2499Z" fill="#78D570"/>
<path d="M16.8735 24.9067C16.8692 24.6625 17.0659 24.4611 17.3128 24.4568L17.6241 24.4514C17.871 24.4472 18.0747 24.6417 18.079 24.8859L18.1265 27.5783C18.1308 27.8225 17.9342 28.0239 17.6872 28.0282L17.3759 28.0335C17.129 28.0378 16.9253 27.8433 16.921 27.5991L16.8735 24.9067Z" fill="#2C2C2C"/>
<path d="M18.3055 25.5209C18.3012 25.2767 18.4979 25.0752 18.7448 25.071L19.0562 25.0656C19.3031 25.0613 19.5067 25.2559 19.5111 25.5001L19.5353 26.8725C19.5396 27.1167 19.3429 27.3181 19.096 27.3223L18.7847 27.3277C18.5377 27.332 18.3341 27.1375 18.3298 26.8933L18.3055 25.5209Z" fill="#2C2C2C"/>
<path d="M23.9887 25.4228C23.9843 25.1786 24.181 24.9771 24.428 24.9729L24.7393 24.9675C24.9862 24.9632 25.1899 25.1577 25.1942 25.402L25.2184 26.7743C25.2227 27.0186 25.026 27.22 24.7791 27.2242L24.4678 27.2296C24.2209 27.2339 24.0172 27.0394 24.0129 26.7952L23.9887 25.4228Z" fill="#2C2C2C"/>
<path d="M21.1313 24.5776C21.127 24.3334 21.3237 24.132 21.5706 24.1277L21.8819 24.1224C22.1289 24.1181 22.3325 24.3126 22.3368 24.5568L22.3926 27.7176C22.3969 27.9618 22.2002 28.1632 21.9533 28.1675L21.642 28.1729C21.3951 28.1771 21.1914 27.9826 21.1871 27.7384L21.1313 24.5776Z" fill="#2C2C2C"/>
<path d="M22.5371 23.7015C22.5328 23.4573 22.7294 23.2559 22.9764 23.2516L23.2877 23.2462C23.5346 23.242 23.7383 23.4365 23.7426 23.6807L23.8284 28.5447C23.8327 28.7889 23.6361 28.9903 23.3891 28.9946L23.0778 28.9999C22.8309 29.0042 22.6272 28.8097 22.6229 28.5655L22.5371 23.7015Z" fill="#78D570"/>
</svg>
