<svg width="379" height="379" viewBox="0 0 379 379" fill="none" xmlns="http://www.w3.org/2000/svg">
<path d="M212.609 39.5946C221.484 30.2337 237.186 34.2187 240.522 46.6788L252.676 92.0663C257.902 94.6351 262.822 97.6501 267.399 101.051L311.776 99.8689C324.67 99.5252 332.955 113.445 326.504 124.615L304.726 162.321C305.728 168.422 306.142 174.669 305.921 180.986L339.276 212.609C348.637 221.484 344.652 237.186 332.192 240.522L287.511 252.486C284.739 257.881 281.487 262.936 277.824 267.614L279.003 311.776C279.347 324.67 265.426 332.955 254.256 326.504L214.5 303.542C209.566 304.164 204.548 304.402 199.484 304.232L166.261 339.276C157.387 348.637 141.685 344.652 138.349 332.192L125.64 284.732C125.631 284.699 125.62 284.666 125.611 284.632C121.833 282.562 118.229 280.254 114.815 277.73L67.095 279.003C54.2007 279.346 45.9166 265.426 52.3678 254.256L76.705 212.115C76.2676 208.424 76.0444 204.687 76.046 200.921C75.8004 200.623 75.5357 200.336 75.2497 200.065L39.5946 166.261C30.2337 157.387 34.2187 141.685 46.6788 138.349L94.1386 125.64C94.3997 125.57 94.6555 125.489 94.9061 125.399C96.7823 121.825 98.8696 118.403 101.149 115.144L99.8689 67.0953C99.5252 54.2008 113.445 45.9166 124.615 52.3678L164.67 75.5008C169.586 74.7292 174.594 74.3395 179.654 74.3546L212.609 39.5946Z" fill="#FEFEFE" stroke="#F7B51D" stroke-width="7"/>
<path d="M214.061 40.9704C221.86 32.7442 235.658 36.2463 238.591 47.1961L250.98 93.4666C256.611 96.1667 261.885 99.3928 266.756 103.068L311.829 101.868C323.161 101.567 330.441 113.799 324.772 123.615L302.633 161.945C303.748 168.427 304.185 175.082 303.885 181.812L337.9 214.061C346.127 221.86 342.625 235.658 331.675 238.591L286.13 250.786C283.222 256.58 279.752 261.984 275.806 266.945L277.003 311.83C277.305 323.161 265.072 330.441 255.257 324.772L214.912 301.47C209.58 302.181 204.145 302.434 198.658 302.198C198.643 302.214 198.628 302.23 198.613 302.245L164.81 337.9C157.011 346.127 143.212 342.625 140.28 331.675L127.572 284.215C127.484 283.888 127.382 283.568 127.268 283.254C123.112 281.023 119.169 278.498 115.457 275.712L67.0423 277.004C55.7108 277.306 48.4306 265.073 54.0997 255.257L78.6718 212.71C78.7062 212.651 78.7378 212.59 78.771 212.53C78.2628 208.485 78.0171 204.383 78.0489 200.246C77.6321 199.667 77.1586 199.119 76.6256 198.613L40.9704 164.81C32.7442 157.011 36.2463 143.212 47.1961 140.28L94.6558 127.572C95.2387 127.416 95.8 127.214 96.3384 126.976C98.3625 123.047 100.649 119.302 103.166 115.756L101.868 67.0425C101.566 55.711 113.799 48.4306 123.615 54.0999L164.284 77.5879C169.596 76.7127 175.021 76.2944 180.507 76.3614L214.061 40.9704Z" fill="#FEFEFE" stroke="#2C2C2C" stroke-width="3"/>
</svg>
