<svg width="151" height="121" viewBox="0 0 151 121" fill="none" xmlns="http://www.w3.org/2000/svg">
<path d="M20.72 13.736C21.2 12.92 21.896 12.176 22.808 11.504C23.736 10.832 24.776 10.296 25.928 9.896C27.096 9.496 28.264 9.296 29.432 9.296C30.184 9.296 30.944 9.368 31.712 9.512C32.48 9.64 33.08 9.824 33.512 10.064L32.552 14.888C32.168 14.728 31.672 14.56 31.064 14.384C30.472 14.192 29.736 14.096 28.856 14.096C27.912 14.096 26.968 14.272 26.024 14.624C25.096 14.96 24.24 15.424 23.456 16.016C22.672 16.608 22.016 17.288 21.488 18.056C21.712 19.176 21.928 20.544 22.136 22.16C22.36 23.776 22.56 25.432 22.736 27.128C22.912 28.824 23.056 30.376 23.168 31.784C23.28 33.176 23.336 34.224 23.336 34.928C22.648 34.992 21.808 35.032 20.816 35.048C19.824 35.064 18.912 35.064 18.08 35.048C18.08 33.56 18.048 31.992 17.984 30.344C17.92 28.68 17.816 26.984 17.672 25.256C17.544 23.512 17.376 21.776 17.168 20.048C16.96 18.32 16.712 16.648 16.424 15.032C16.152 13.4 15.84 11.856 15.488 10.4C15.92 10.272 16.424 10.144 17 10.016C17.592 9.888 18.136 9.776 18.632 9.68C19.128 9.584 19.464 9.528 19.64 9.512C19.848 10.056 20.064 10.76 20.288 11.624C20.512 12.488 20.656 13.192 20.72 13.736ZM47.2044 35.504C45.2044 35.504 43.3884 35.24 41.7564 34.712C40.1404 34.168 38.8524 33.304 37.8924 32.12C36.9324 30.92 36.4524 29.328 36.4524 27.344C36.4524 25.44 36.9884 23.864 38.0604 22.616C39.1324 21.368 40.5804 20.448 42.4044 19.856C44.2444 19.248 46.3004 18.944 48.5724 18.944C49.6284 18.944 50.6604 19.024 51.6684 19.184C52.6764 19.328 53.5484 19.504 54.2844 19.712C55.0204 19.904 55.5164 20.056 55.7724 20.168C55.7244 19.64 55.6284 19.104 55.4844 18.56C55.3564 18 55.1564 17.512 54.8844 17.096C54.2764 16.024 53.3884 15.144 52.2204 14.456C51.0684 13.752 49.6204 13.4 47.8764 13.4C46.0364 13.4 44.4764 13.8 43.1964 14.6C41.9164 15.384 40.9564 16.32 40.3164 17.408L36.4284 14.84C37.1324 13.8 38.0604 12.88 39.2124 12.08C40.3644 11.28 41.6924 10.648 43.1964 10.184C44.7004 9.72 46.3164 9.488 48.0444 9.488C50.7324 9.488 52.9564 10 54.7164 11.024C56.4764 12.048 57.7644 13.4 58.5804 15.08C58.9964 15.928 59.3244 16.856 59.5644 17.864C59.8044 18.872 59.9484 20.12 59.9964 21.608C60.0284 23.176 60.0604 24.512 60.0924 25.616C60.1404 26.72 60.1884 27.672 60.2364 28.472C60.3164 29.512 60.4764 30.184 60.7164 30.488C60.9564 30.792 61.3004 30.944 61.7484 30.944C62.2604 30.944 62.6924 30.728 63.0444 30.296C63.3964 29.848 63.5964 29.224 63.6444 28.424L65.9484 30.968C65.8524 32.312 65.3804 33.336 64.5324 34.04C63.6844 34.744 62.6924 35.096 61.5564 35.096C60.6604 35.096 59.8684 34.928 59.1804 34.592C58.5084 34.24 57.9724 33.792 57.5724 33.248C57.1724 32.704 56.9404 32.144 56.8764 31.568C56.5564 32.16 55.9324 32.76 55.0044 33.368C54.0924 33.976 52.9644 34.488 51.6204 34.904C50.2924 35.304 48.8204 35.504 47.2044 35.504ZM48.0684 31.736C49.1084 31.736 50.1244 31.576 51.1164 31.256C52.1084 30.936 53.0204 30.512 53.8524 29.984C54.7004 29.456 55.3964 28.872 55.9404 28.232C55.9244 27.24 55.9244 26.36 55.9404 25.592C55.9564 24.808 55.9804 24.088 56.0124 23.432C55.5484 23.272 54.6604 23.064 53.3484 22.808C52.0364 22.536 50.5564 22.4 48.9084 22.4C47.4844 22.4 46.1884 22.592 45.0204 22.976C43.8684 23.344 42.9484 23.88 42.2604 24.584C41.5884 25.288 41.2524 26.136 41.2524 27.128C41.2524 28.328 41.5404 29.264 42.1164 29.936C42.7084 30.592 43.5164 31.056 44.5404 31.328C45.5644 31.6 46.7404 31.736 48.0684 31.736ZM86.0825 34.928C86.0825 34.656 86.0745 34.248 86.0585 33.704C86.0425 33.144 86.0345 32.6 86.0345 32.072C86.0345 31.528 86.0345 31.128 86.0345 30.872C85.9225 31.064 85.6745 31.376 85.2905 31.808C84.9065 32.24 84.3625 32.696 83.6585 33.176C82.9705 33.656 82.0985 34.064 81.0425 34.4C79.9865 34.736 78.7305 34.904 77.2745 34.904C75.1305 34.904 73.2985 34.44 71.7785 33.512C70.2585 32.568 69.0985 31.256 68.2985 29.576C67.5145 27.896 67.1225 25.952 67.1225 23.744C67.1225 21.68 67.5225 19.76 68.3225 17.984C69.1225 16.192 70.3225 14.744 71.9225 13.64C73.5225 12.536 75.5225 11.984 77.9225 11.984C79.3625 11.984 80.6425 12.144 81.7625 12.464C82.8985 12.784 83.8425 13.168 84.5945 13.616C85.3625 14.048 85.9065 14.432 86.2265 14.768C86.2425 14.064 86.2825 13.192 86.3465 12.152C86.4265 11.112 86.5065 10.008 86.5865 8.84C86.6665 7.672 86.7465 6.544 86.8265 5.456C86.9065 4.352 86.9785 3.384 87.0425 2.552C87.1225 1.72 87.1785 1.136 87.2105 0.799998C87.8505 0.799998 88.5545 0.831998 89.3225 0.895997C90.1065 0.959998 90.7785 1.048 91.3385 1.16C91.0505 4.904 90.8265 8.632 90.6665 12.344C90.5225 16.04 90.4265 19.776 90.3785 23.552C90.3305 27.312 90.3065 31.144 90.3065 35.048C90.0665 35.048 89.6585 35.04 89.0825 35.024C88.5225 35.024 87.9545 35.016 87.3785 35C86.8025 34.968 86.3705 34.944 86.0825 34.928ZM78.4265 30.488C79.5305 30.488 80.5145 30.328 81.3785 30.008C82.2425 29.672 82.9785 29.272 83.5865 28.808C84.1945 28.328 84.6905 27.856 85.0745 27.392C85.4745 26.912 85.7545 26.528 85.9145 26.24C85.9145 25.872 85.9145 25.336 85.9145 24.632C85.9305 23.912 85.9385 23.16 85.9385 22.376C85.9545 21.576 85.9625 20.832 85.9625 20.144C85.9785 19.456 85.9945 18.944 86.0105 18.608C85.6425 18.272 85.0905 17.904 84.3545 17.504C83.6345 17.104 82.7865 16.76 81.8105 16.472C80.8345 16.184 79.7865 16.04 78.6665 16.04C76.3785 16.04 74.6265 16.712 73.4105 18.056C72.2105 19.384 71.6105 21.192 71.6105 23.48C71.6105 25.784 72.1945 27.528 73.3625 28.712C74.5465 29.896 76.2345 30.488 78.4265 30.488ZM103.226 35.024C103.002 35.04 102.65 35.064 102.17 35.096C101.69 35.128 101.202 35.144 100.706 35.144C100.258 35.144 99.826 35.128 99.41 35.096C98.994 35.064 98.602 35.024 98.234 34.976C98.298 34.56 98.378 33.704 98.474 32.408C98.57 31.096 98.666 29.544 98.762 27.752C98.858 25.96 98.946 24.112 99.026 22.208C99.106 20.304 99.17 18.528 99.218 16.88C99.266 15.216 99.29 13.896 99.29 12.92C99.466 12.904 99.746 12.888 100.13 12.872C100.53 12.856 100.962 12.84 101.426 12.824C101.89 12.792 102.33 12.768 102.746 12.752C103.162 12.736 103.474 12.728 103.682 12.728C103.746 13.16 103.786 13.824 103.802 14.72C103.834 15.6 103.85 16.6 103.85 17.72C103.85 19.208 103.834 20.832 103.802 22.592C103.786 24.352 103.746 26.08 103.682 27.776C103.618 29.472 103.546 30.968 103.466 32.264C103.402 33.56 103.322 34.48 103.226 35.024ZM101.762 8.984C100.674 8.984 99.81 8.656 99.17 8C98.53 7.344 98.21 6.52 98.21 5.528C98.21 4.776 98.37 4.152 98.69 3.656C99.01 3.144 99.426 2.76 99.938 2.504C100.466 2.232 101.034 2.096 101.642 2.096C102.618 2.096 103.402 2.44 103.994 3.128C104.602 3.816 104.906 4.672 104.906 5.696C104.906 6.592 104.618 7.368 104.042 8.024C103.482 8.664 102.722 8.984 101.762 8.984ZM123.862 35.744C119.67 35.744 116.574 34.576 114.574 32.24C112.574 29.904 111.574 26.544 111.574 22.16C111.574 19.392 112.086 17.056 113.11 15.152C114.15 13.248 115.59 11.8 117.43 10.808C119.286 9.816 121.446 9.32 123.91 9.32C126.518 9.32 128.67 9.928 130.366 11.144C132.062 12.344 133.318 14.024 134.134 16.184C134.966 18.328 135.382 20.824 135.382 23.672C135.382 26.12 134.926 28.248 134.014 30.056C133.102 31.848 131.782 33.248 130.054 34.256C128.342 35.248 126.278 35.744 123.862 35.744ZM123.67 31.448C124.966 31.448 126.078 31.208 127.006 30.728C127.934 30.248 128.686 29.608 129.262 28.808C129.838 27.992 130.262 27.08 130.534 26.072C130.822 25.064 130.966 24.032 130.966 22.976C130.966 21.056 130.702 19.344 130.174 17.84C129.646 16.336 128.846 15.16 127.774 14.312C126.702 13.448 125.334 13.016 123.67 13.016C122.038 13.016 120.67 13.408 119.566 14.192C118.462 14.976 117.63 16.056 117.07 17.432C116.526 18.808 116.254 20.384 116.254 22.16C116.254 24.896 116.886 27.128 118.15 28.856C119.414 30.584 121.254 31.448 123.67 31.448Z" fill="#2C2C2C"/>
<path d="M0 113.714H6.85714V120.571H2C0.895429 120.571 0 119.676 0 118.571V113.714ZM0 106.857H6.85714V113.714H0V106.857ZM0 100H6.85714V106.857H0V100ZM0 93.1429H6.85714V100H0V93.1429ZM0 86.2857H6.85714V93.1429H0V86.2857ZM0 79.4286H6.85714V86.2857H0V79.4286ZM6.85714 79.4286H13.7143V86.2857H6.85714V79.4286ZM6.85714 72.5714H13.7143V79.4286H6.85714V72.5714ZM6.85714 65.7143H13.7143V72.5714H6.85714V65.7143ZM6.85714 58.8571H13.7143V65.7143H6.85714V58.8571ZM0 58.8571H6.85714V65.7143H0V58.8571ZM0 54C0 52.8954 0.895431 52 2 52H6.85714V58.8571H0V54ZM0 65.7143H6.85714V72.5714H0V65.7143ZM0 72.5714H6.85714V79.4286H0V72.5714ZM6.85714 52H11.7143C12.8189 52 13.7143 52.8954 13.7143 54V58.8571H6.85714V52ZM6.85714 86.2857H13.7143V93.1429H6.85714V86.2857ZM6.85714 93.1429H13.7143V100H6.85714V93.1429ZM6.85714 100H13.7143V106.857H6.85714V100ZM6.85714 106.857H13.7143V113.714H6.85714V106.857ZM6.85714 113.714H13.7143V118.571C13.7143 119.676 12.8189 120.571 11.7143 120.571H6.85714V113.714ZM13.7143 65.7143H20.5714V72.5714H13.7143V65.7143ZM13.7143 72.5714H20.5714V79.4286H13.7143V72.5714ZM20.5714 72.5714H27.4286V79.4286H20.5714V72.5714ZM20.5714 79.4286H27.4286V86.2857H22.5714C21.4669 86.2857 20.5714 85.3903 20.5714 84.2857V79.4286ZM27.4286 79.4286H34.2857V86.2857H27.4286V79.4286ZM27.4286 86.2857H34.2857V91.1429C34.2857 92.2474 33.3903 93.1429 32.2857 93.1429H29.4286C28.324 93.1429 27.4286 92.2474 27.4286 91.1429V86.2857ZM34.2857 79.4286H41.1429V84.2857C41.1429 85.3903 40.2474 86.2857 39.1429 86.2857H34.2857V79.4286ZM34.2857 72.5714H41.1429V79.4286H34.2857V72.5714ZM41.1429 72.5714H48V79.4286H41.1429V72.5714ZM41.1429 65.7143H48V72.5714H41.1429V65.7143ZM48 54C48 52.8954 48.8954 52 50 52H54.8571V58.8571H48V54ZM48 58.8571H54.8571V65.7143H48V58.8571ZM48 65.7143H54.8571V72.5714H48V65.7143ZM48 72.5714H54.8571V79.4286H48V72.5714ZM48 79.4286H54.8571V86.2857H48V79.4286ZM48 86.2857H54.8571V93.1429H48V86.2857ZM48 93.1429H54.8571V100H48V93.1429ZM48 100H54.8571V106.857H48V100ZM48 106.857H54.8571V113.714H48V106.857ZM48 113.714H54.8571V120.571H50C48.8954 120.571 48 119.676 48 118.571V113.714ZM54.8571 113.714H61.7143V118.571C61.7143 119.676 60.8189 120.571 59.7143 120.571H54.8571V113.714ZM54.8571 106.857H61.7143V113.714H54.8571V106.857ZM54.8571 100H61.7143V106.857H54.8571V100ZM54.8571 93.1429H61.7143V100H54.8571V93.1429ZM54.8571 86.2857H61.7143V93.1429H54.8571V86.2857ZM54.8571 79.4286H61.7143V86.2857H54.8571V79.4286ZM54.8571 72.5714H61.7143V79.4286H54.8571V72.5714ZM54.8571 65.7143H61.7143V72.5714H54.8571V65.7143ZM54.8571 58.8571H61.7143V65.7143H54.8571V58.8571ZM54.8571 52H59.7143C60.8189 52 61.7143 52.8954 61.7143 54V58.8571H54.8571V52ZM13.7143 58.8571H18.5714C19.676 58.8571 20.5714 59.7526 20.5714 60.8571V65.7143H13.7143V58.8571ZM20.5714 65.7143H25.4286C26.5331 65.7143 27.4286 66.6097 27.4286 67.7143V72.5714H20.5714V65.7143ZM27.4286 72.5714H34.2857V79.4286H27.4286V72.5714ZM34.2857 67.7143C34.2857 66.6097 35.1811 65.7143 36.2857 65.7143H41.1429V72.5714H34.2857V67.7143ZM41.1429 60.8571C41.1429 59.7526 42.0383 58.8571 43.1429 58.8571H48V65.7143H41.1429V60.8571Z" fill="#F7B51D"/>
<path d="M68.625 113.714H75.4821V120.571H70.625C69.5204 120.571 68.625 119.676 68.625 118.571V113.714ZM68.625 106.857H75.4821V113.714H68.625V106.857ZM68.625 100H75.4821V106.857H68.625V100ZM68.625 93.1429H75.4821V100H68.625V93.1429ZM68.625 86.2857H75.4821V93.1429H68.625V86.2857ZM68.625 79.4286H75.4821V86.2857H68.625V79.4286ZM75.4821 79.4286H82.3393V86.2857H75.4821V79.4286ZM75.4821 72.5714H82.3393V79.4286H75.4821V72.5714ZM75.4821 65.7143H82.3393V72.5714H75.4821V65.7143ZM75.4821 58.8571H82.3393V65.7143H75.4821V58.8571ZM68.625 58.8571H75.4821V65.7143H68.625V58.8571ZM68.625 54C68.625 52.8954 69.5204 52 70.625 52H75.4821V58.8571H68.625V54ZM68.625 65.7143H75.4821V72.5714H68.625V65.7143ZM68.625 72.5714H75.4821V79.4286H68.625V72.5714ZM75.4821 52H80.3393C81.4439 52 82.3393 52.8954 82.3393 54V58.8571H75.4821V52ZM75.4821 86.2857H82.3393V93.1429H75.4821V86.2857ZM75.4821 93.1429H82.3393V100H75.4821V93.1429ZM75.4821 100H82.3393V106.857H75.4821V100ZM75.4821 106.857H82.3393V113.714H75.4821V106.857ZM75.4821 113.714H82.3393V118.571C82.3393 119.676 81.4439 120.571 80.3393 120.571H75.4821V113.714ZM82.3393 65.7143H89.1964V72.5714H82.3393V65.7143ZM82.3393 72.5714H89.1964V79.4286H82.3393V72.5714ZM89.1964 72.5714H96.0536V79.4286H89.1964V72.5714ZM89.1964 79.4286H96.0536V86.2857H91.1964C90.0919 86.2857 89.1964 85.3903 89.1964 84.2857V79.4286ZM96.0536 79.4286H102.911V86.2857H96.0536V79.4286ZM96.0536 86.2857H102.911V91.1429C102.911 92.2474 102.015 93.1429 100.911 93.1429H98.0536C96.949 93.1429 96.0536 92.2474 96.0536 91.1429V86.2857ZM102.911 79.4286H109.768V84.2857C109.768 85.3903 108.872 86.2857 107.768 86.2857H102.911V79.4286ZM102.911 72.5714H109.768V79.4286H102.911V72.5714ZM109.768 72.5714H116.625V79.4286H109.768V72.5714ZM109.768 65.7143H116.625V72.5714H109.768V65.7143ZM116.625 54C116.625 52.8954 117.52 52 118.625 52H123.482V58.8571H116.625V54ZM116.625 58.8571H123.482V65.7143H116.625V58.8571ZM116.625 65.7143H123.482V72.5714H116.625V65.7143ZM116.625 72.5714H123.482V79.4286H116.625V72.5714ZM116.625 79.4286H123.482V86.2857H116.625V79.4286ZM116.625 86.2857H123.482V93.1429H116.625V86.2857ZM116.625 93.1429H123.482V100H116.625V93.1429ZM116.625 100H123.482V106.857H116.625V100ZM116.625 106.857H123.482V113.714H116.625V106.857ZM116.625 113.714H123.482V120.571H118.625C117.52 120.571 116.625 119.676 116.625 118.571V113.714ZM123.482 113.714H130.339V118.571C130.339 119.676 129.444 120.571 128.339 120.571H123.482V113.714ZM123.482 106.857H130.339V113.714H123.482V106.857ZM123.482 100H130.339V106.857H123.482V100ZM123.482 93.1429H130.339V100H123.482V93.1429ZM123.482 86.2857H130.339V93.1429H123.482V86.2857ZM123.482 79.4286H130.339V86.2857H123.482V79.4286ZM123.482 72.5714H130.339V79.4286H123.482V72.5714ZM123.482 65.7143H130.339V72.5714H123.482V65.7143ZM123.482 58.8571H130.339V65.7143H123.482V58.8571ZM123.482 52H128.339C129.444 52 130.339 52.8954 130.339 54V58.8571H123.482V52ZM82.3393 58.8571H87.1964C88.301 58.8571 89.1964 59.7526 89.1964 60.8571V65.7143H82.3393V58.8571ZM89.1964 65.7143H94.0536C95.1581 65.7143 96.0536 66.6097 96.0536 67.7143V72.5714H89.1964V65.7143ZM96.0536 72.5714H102.911V79.4286H96.0536V72.5714ZM102.911 67.7143C102.911 66.6097 103.806 65.7143 104.911 65.7143H109.768V72.5714H102.911V67.7143ZM109.768 60.8571C109.768 59.7526 110.663 58.8571 111.768 58.8571H116.625V65.7143H109.768V60.8571Z" fill="#2C2C2C"/>
<path d="M137.25 113.714H144.107V120.571H139.25C138.145 120.571 137.25 119.676 137.25 118.571V113.714ZM144.107 113.714H150.964V118.571C150.964 119.676 150.069 120.571 148.964 120.571H144.107V113.714ZM144.107 106.857H150.964V113.714H144.107V106.857ZM144.107 100H150.964V106.857H144.107V100ZM144.107 93.1429H150.964V100H144.107V93.1429ZM144.107 86.2857H150.964V93.1429H144.107V86.2857ZM144.107 79.4286H150.964V86.2857H144.107V79.4286ZM137.25 79.4286H144.107V86.2857H137.25V79.4286ZM137.25 86.2857H144.107V93.1429H137.25V86.2857ZM137.25 93.1429H144.107V100H137.25V93.1429ZM137.25 100H144.107V106.857H137.25V100ZM137.25 106.857H144.107V113.714H137.25V106.857ZM137.25 72.5714H144.107V79.4286H137.25V72.5714ZM144.107 72.5714H150.964V79.4286H144.107V72.5714ZM144.107 65.7143H150.964V72.5714H144.107V65.7143ZM144.107 58.8571H150.964V65.7143H144.107V58.8571ZM144.107 52H148.964C150.069 52 150.964 52.8954 150.964 54V58.8571H144.107V52ZM137.25 54C137.25 52.8954 138.145 52 139.25 52H144.107V58.8571H137.25V54ZM137.25 58.8571H144.107V65.7143H137.25V58.8571ZM137.25 65.7143H144.107V72.5714H137.25V65.7143Z" fill="#2C2C2C"/>
</svg>
